<?xml version="1.0" standalone="no"?>
<!DOCTYPE svg PUBLIC "-//W3C//DTD SVG 20010904//EN"
 "http://www.w3.org/TR/2001/REC-SVG-20010904/DTD/svg10.dtd">
<svg version="1.0" xmlns="http://www.w3.org/2000/svg"
 width="85.000000pt" height="84.000000pt" viewBox="0 0 85.000000 84.000000"
 preserveAspectRatio="xMidYMid meet">

<g transform="translate(0.000000,84.000000) scale(0.100000,-0.100000)"
fill="#fff" stroke="none">
<path d="M393 702 c-11 -7 -163 -413 -163 -434 0 -5 21 -8 46 -8 44 0 46 1 61
40 l16 41 80 -3 80 -3 12 -35 c11 -33 14 -35 63 -38 l51 -3 -15 43 c-9 24 -41
113 -71 198 -30 85 -59 167 -65 183 -8 23 -16 27 -46 27 -21 0 -43 -4 -49 -8z
m82 -273 c-5 -8 -84 -7 -87 1 -1 6 32 110 40 124 3 5 15 -20 28 -54 13 -35 21
-67 19 -71z"/>
<path d="M16 522 c-3 -5 -6 -75 -7 -157 l-3 -150 209 -106 210 -107 210 107
c183 92 210 109 209 129 -1 12 -2 81 -3 152 -1 108 -3 130 -16 130 -13 0 -15
-21 -15 -132 0 -73 -4 -138 -8 -144 -4 -6 -90 -53 -192 -104 l-184 -92 -188
93 c-118 59 -188 99 -189 109 0 8 0 72 1 141 1 104 -2 128 -14 132 -9 4 -17 3
-20 -1z"/>
</g>
</svg>
