<svg xmlns="http://www.w3.org/2000/svg"  viewBox="0 -960 960 960" ><path d="M287-527q-47-47-47-113t47-113q47-47 113-47t113 47q47 47 47 113t-47 113q-47 47-113 47t-113-47ZM80-240v-32q0-33 17-62t47-44q58-29 120-45.5T391-440q17 0 28.5 12t11.5 29q0 17-11.5 28.5T391-359q-56 0-108.5 14T180-306q-10 5-15 14t-5 20v32h231q17 0 28.5 11.5T431-200q0 17-11.5 28.5T391-160H160q-33 0-56.5-23.5T80-240Zm554 88-6-28q-12-5-22.5-10.5T584-204l-29 9q-13 4-25.5-1T510-212l-8-14q-7-12-5-26t13-23l22-19q-2-14-2-26t2-26l-22-19q-11-9-13-22.5t5-25.5l9-15q7-11 19-16t25-1l29 9q11-8 21.5-13.5T628-460l6-29q3-14 13.5-22.5T672-520h16q14 0 24.5 9t13.5 23l6 28q12 5 22.5 11t21.5 15l27-9q14-5 27 0t20 17l8 14q7 12 5 26t-13 23l-22 19q2 12 2 25t-2 25l22 19q11 9 13 22.5t-5 25.5l-9 15q-7 11-19 16t-25 1l-29-9q-11 8-21.5 13.5T732-180l-6 29q-3 14-13.5 22.5T688-120h-16q-14 0-24.5-9T634-152Zm102.5-111.5Q760-287 760-320t-23.5-56.5Q713-400 680-400t-56.5 23.5Q600-353 600-320t23.5 56.5Q647-240 680-240t56.5-23.5Zm-280-320Q480-607 480-640t-23.5-56.5Q433-720 400-720t-56.5 23.5Q320-673 320-640t23.5 56.5Q367-560 400-560t56.5-23.5ZM400-640Zm12 400Z"/></svg>