<svg xmlns="http://www.w3.org/2000/svg" viewBox="0 -960 960 960"><path d="M155-75q-35-35-35-85t35-85q35-35 85-35 14 0 26 3t23 8l57-71q-28-31-39-70t-5-78l-81-27q-17 25-43 40t-58 15q-50 0-85-35T0-580q0-50 35-85t85-35q50 0 85 35t35 85v8l81 28q20-36 53.5-61t75.5-32v-87q-39-11-64.5-42.5T360-840q0-50 35-85t85-35q50 0 85 35t35 85q0 42-26 73.5T510-724v87q42 7 75.5 32t53.5 61l81-28v-8q0-50 35-85t85-35q50 0 85 35t35 85q0 50-35 85t-85 35q-32 0-58.5-15T739-515l-81 27q6 39-5 77.5T614-340l57 70q11-5 23-7.5t26-2.5q50 0 85 35t35 85q0 50-35 85t-85 35q-50 0-85-35t-35-85q0-20 6.5-38.5T624-232l-57-71q-41 23-87.5 23T392-303l-56 71q11 15 17.5 33.5T360-160q0 50-35 85t-85 35q-50 0-85-35Zm-35-465q17 0 28.5-11.5T160-580q0-17-11.5-28.5T120-620q-17 0-28.5 11.5T80-580q0 17 11.5 28.5T120-540Zm148.5 408.5Q280-143 280-160t-11.5-28.5Q257-200 240-200t-28.5 11.5Q200-177 200-160t11.5 28.5Q223-120 240-120t28.5-11.5Zm240-680Q520-823 520-840t-11.5-28.5Q497-880 480-880t-28.5 11.5Q440-857 440-840t11.5 28.5Q463-800 480-800t28.5-11.5ZM480-360q42 0 71-29t29-71q0-42-29-71t-71-29q-42 0-71 29t-29 71q0 42 29 71t71 29Zm268.5 228.5Q760-143 760-160t-11.5-28.5Q737-200 720-200t-28.5 11.5Q680-177 680-160t11.5 28.5Q703-120 720-120t28.5-11.5Zm120-420Q880-563 880-580t-11.5-28.5Q857-620 840-620t-28.5 11.5Q800-597 800-580t11.5 28.5Q823-540 840-540t28.5-11.5ZM480-840ZM120-580Zm360 120Zm360-120ZM240-160Zm480 0Z"/></svg>