<svg xmlns="http://www.w3.org/2000/svg" viewBox="0 0 100 100" fill="none" x="0px" y="0px"><path fill-rule="evenodd" clip-rule="evenodd" d="M50 5C74.8528 5 95 25.1472 95 50C95 74.6043 75.2537 94.5966 50.7442 94.994L50 95C25.1472 95 5 74.8528 5 50C5 25.1472 25.1472 5 50 5ZM64.9039 50.8831C60.9959 54.7863 55.5998 57.2 49.64 57.2C43.8284 57.2 38.5529 54.9048 34.6707 51.1706C27.6904 55.9933 23.0926 64.019 23.0014 73.1238L23 73.4L22.9994 80.1869C30.1647 86.6003 39.6269 90.5 50 90.5C60.3733 90.5 69.8357 86.6001 77.001 80.1865L77 73.4C77 63.9974 72.1937 55.7173 64.9039 50.8831ZM49.64 17.6C39.6989 17.6 31.64 25.6589 31.64 35.6C31.64 45.5411 39.6989 53.6 49.64 53.6C59.5811 53.6 67.64 45.5411 67.64 35.6C67.64 25.6589 59.5811 17.6 49.64 17.6Z" fill="black"/></svg>